<svg xmlns="http://www.w3.org/2000/svg" xmlns:xlink="http://www.w3.org/1999/xlink" width="500" zoomAndPan="magnify" viewBox="0 0 375 374.999991" height="500" preserveAspectRatio="xMidYMid meet" version="1.0"><defs><filter x="0%" y="0%" width="100%" height="100%" id="a149415a03"><feColorMatrix values="0 0 0 0 1 0 0 0 0 1 0 0 0 0 1 0 0 0 1 0" color-interpolation-filters="sRGB"/></filter><clipPath id="46f7949c84"><path d="M 217 323 L 313 323 L 313 337.613281 L 217 337.613281 Z M 217 323 " clip-rule="nonzero"/></clipPath><mask id="3a51cca4af"><g filter="url(#a149415a03)"><rect x="-37.5" width="450" fill="#000000" y="-37.499999" height="449.999989" fill-opacity="0.42"/></g></mask><clipPath id="7998dad78b"><path d="M 1 0.121094 L 59 0.121094 L 59 92.519531 L 1 92.519531 Z M 1 0.121094 " clip-rule="nonzero"/></clipPath><clipPath id="82a26a82a8"><rect x="0" width="60" y="0" height="93"/></clipPath></defs><path fill="#1c3249" d="M 86.667969 152.179688 C 76.734375 156.097656 64.960938 154.976562 55.941406 149.261719 C 53.03125 147.417969 50.207031 144.777344 49.855469 141.351562 C 49.5 137.921875 53.066406 134.222656 56.203125 135.652344 C 49.046875 128.570312 46.902344 116.917969 51.070312 107.753906 C 51.40625 107.011719 51.84375 106.226562 52.605469 105.933594 C 53.472656 105.601562 54.441406 106.027344 55.367188 105.964844 C 56.953125 105.863281 58.078125 104.417969 58.882812 103.050781 C 62.304688 97.261719 63.929688 90.59375 66.890625 84.554688 C 69.851562 78.515625 74.773438 72.761719 81.410156 71.683594 C 90.824219 70.15625 99.304688 78.421875 108.84375 78.585938 C 111.039062 71.8125 118.375 68.203125 125.253906 66.378906 C 131.636719 64.6875 138.25 63.886719 144.851562 64.003906 C 147.078125 64.042969 149.375 64.203125 151.375 65.179688 C 154.878906 66.886719 156.839844 70.84375 157.214844 74.722656 C 157.585938 78.601562 156.640625 82.472656 155.699219 86.253906 C 160.761719 84.453125 167.433594 83.089844 170.644531 87.398438 C 172.792969 90.285156 172.132812 94.320312 171.246094 97.808594 C 169.269531 105.5625 166.214844 112.839844 163.117188 120.257812 C 160.382812 126.800781 154.253906 130.097656 148.34375 133.371094 C 141.230469 137.308594 133.214844 139.253906 125.308594 141.160156 C 113.566406 143.988281 97.902344 147.75 86.667969 152.179688 Z M 86.667969 152.179688 " fill-opacity="1" fill-rule="nonzero"/><path fill="#ffcaad" d="M 130.675781 288.476562 C 131.582031 291.414062 132.277344 294.09375 133.574219 297.191406 C 136.417969 303.988281 142.730469 308.597656 148.789062 312.789062 C 152.757812 315.53125 157.554688 318.003906 162.261719 319.058594 C 154.933594 321.214844 147.367188 322.1875 139.777344 323.035156 C 150.132812 325.578125 161.046875 326.886719 171.699219 326.410156 C 183.667969 330.308594 195.878906 335.839844 208.464844 335.839844 C 228.808594 335.839844 249.941406 335.75 270.6875 335.703125 C 261.738281 318.546875 256.070312 299.777344 254.707031 280.042969 C 213.675781 284.320312 171.886719 285.582031 130.675781 288.476562 Z M 130.675781 288.476562 " fill-opacity="1" fill-rule="nonzero"/><path fill="#ffffff" d="M 325.101562 272.222656 C 320.875 253.996094 314.882812 236.230469 308.898438 218.5 C 301.628906 196.96875 294.363281 175.441406 287.09375 153.910156 C 286.289062 151.527344 285.429688 149.054688 283.648438 147.28125 C 281.851562 145.492188 279.34375 144.644531 276.933594 143.855469 C 257.234375 137.410156 237.535156 130.964844 217.832031 124.519531 C 205.1875 131.777344 192.4375 138.785156 179.421875 145.363281 C 156.054688 157.175781 132.617188 169.023438 110.832031 183.554688 C 106.804688 186.238281 102.785156 189.058594 99.679688 192.769531 C 96.460938 196.613281 94.363281 201.246094 92.015625 205.675781 C 83.59375 221.570312 71.632812 235.421875 63.648438 251.539062 C 62.332031 254.195312 61.167969 257.523438 62.855469 259.957031 C 63.738281 261.226562 65.214844 261.929688 66.667969 262.441406 C 69.148438 263.3125 72.78125 262.707031 75.375 263.125 C 92.855469 265.957031 109.660156 269.722656 126.738281 274.394531 C 127.121094 278.265625 128.433594 281.972656 129.738281 285.640625 C 130.089844 286.625 130.390625 287.5625 130.675781 288.476562 C 171.886719 285.582031 213.675781 284.320312 254.707031 280.042969 C 256.070312 299.777344 261.738281 318.546875 270.6875 335.699219 C 277.777344 335.683594 284.820312 335.675781 291.773438 335.675781 C 310.0625 329.09375 325.976562 313.042969 327.53125 293.667969 C 328.105469 286.46875 326.734375 279.261719 325.101562 272.222656 Z M 325.101562 272.222656 " fill-opacity="1" fill-rule="nonzero"/><path fill="#ffcaad" d="M 72.328125 146.175781 C 80.425781 151.875 88.574219 157.609375 95.539062 164.652344 C 99.46875 168.628906 103.175781 173.429688 103.433594 179.015625 C 106.742188 176.054688 108.566406 173.527344 111.507812 170.199219 C 123.085938 175.847656 133.769531 181.625 146.21875 184.9375 C 145.949219 184.722656 146.488281 185.148438 146.21875 184.9375 C 147.054688 184.359375 147.28125 184.125 147.84375 183.277344 C 152.621094 176.089844 156.335938 168.199219 158.828125 159.9375 C 165.40625 158.351562 171.132812 157.855469 177.773438 159.144531 C 180.097656 155.792969 182.355469 151.296875 182.71875 147.230469 C 183.664062 136.683594 185.34375 127.433594 183.4375 117.019531 C 172.480469 116.960938 161.257812 116.242188 151.683594 115.894531 C 151.683594 115.894531 151.171875 113.089844 150.695312 110.839844 C 150 107.570312 147.472656 103.289062 145.183594 100.859375 C 142.285156 97.78125 137.933594 96.039062 133.742188 96.585938 C 129.550781 97.132812 125.6875 100.09375 124.355469 104.105469 C 123.90625 105.453125 123.738281 106.921875 124.058594 108.308594 C 124.777344 111.429688 127.714844 113.484375 130.542969 114.984375 C 127.40625 113.527344 124.027344 115.125 121.296875 117.25 C 118.566406 119.375 117.167969 123.082031 117.816406 126.484375 C 117.953125 127.199219 118.171875 127.933594 118.03125 128.648438 C 117.792969 129.839844 116.644531 130.613281 115.535156 131.101562 C 111.695312 132.800781 107.347656 132.707031 103.164062 133.046875 C 102.59375 133.09375 101.941406 133.191406 101.632812 133.675781 C 101.382812 134.058594 101.441406 134.550781 101.445312 135.007812 C 101.457031 138.605469 97.710938 140.9375 94.351562 142.214844 C 87.691406 144.753906 79.453125 146.15625 72.328125 146.175781 Z M 72.328125 146.175781 " fill-opacity="1" fill-rule="nonzero"/><path fill="#ffcaad" d="M 130.800781 184.5625 C 135.847656 187.300781 139.804688 192.003906 141.816406 199.289062 C 142.226562 200.785156 142.578125 202.351562 143.507812 203.597656 C 144.675781 205.164062 146.621094 206.003906 148.5625 206.246094 C 150.503906 206.492188 152.464844 206.214844 154.402344 205.933594 C 154.160156 207.207031 153.644531 208.421875 152.894531 209.476562 C 153.449219 218.984375 149.769531 229.730469 142.242188 235.566406 C 134.902344 241.253906 125.398438 243.144531 116.273438 244.867188 C 110.503906 245.957031 104.738281 250.808594 98.96875 251.898438 C 93.683594 252.898438 87.882812 250.054688 83.207031 247.394531 C 81.007812 246.144531 79.285156 244.203125 77.757812 242.183594 C 70.039062 231.972656 66.984375 215.878906 72.566406 203.964844 C 81.105469 185.757812 112.441406 174.59375 130.800781 184.5625 Z M 130.800781 184.5625 " fill-opacity="1" fill-rule="nonzero"/><path fill="#7076fe" d="M 125.34375 221.023438 C 133.714844 215.660156 143.640625 213.378906 153.371094 211.359375 C 154.332031 211.15625 155.351562 210.960938 156.28125 211.28125 C 158.359375 211.996094 158.820312 214.804688 158.246094 216.925781 C 157.671875 219.050781 156.433594 221.03125 156.421875 223.230469 C 156.40625 226.5 159.199219 229.214844 162.277344 230.320312 C 165.355469 231.425781 168.710938 231.3125 171.976562 231.464844 C 178.910156 231.785156 185.785156 233.359375 192.164062 236.085938 C 197.015625 238.15625 201.589844 240.886719 206.59375 242.550781 C 214.410156 245.152344 222.945312 245.039062 230.71875 247.769531 C 237.746094 250.238281 243.757812 254.890625 249.632812 259.464844 C 252.808594 261.9375 255.980469 264.40625 259.152344 266.878906 C 263.988281 270.644531 269.144531 274.902344 270.441406 280.890625 C 271.726562 286.84375 268.835938 292.816406 266.03125 298.222656 C 264.863281 300.472656 263.667969 302.761719 261.878906 304.558594 C 260.375 306.070312 258.515625 307.171875 256.617188 308.144531 C 250.171875 311.453125 243.066406 313.460938 235.84375 314.015625 C 226.753906 314.714844 217.65625 313.136719 208.675781 311.566406 C 203.671875 310.6875 198.664062 309.8125 193.660156 308.9375 C 178.957031 306.363281 164.25 303.789062 149.546875 301.214844 C 142.925781 300.054688 136.074219 298.800781 130.550781 294.972656 C 124.164062 290.546875 120.433594 283.300781 117.105469 276.28125 C 108.113281 257.296875 105.097656 233.992188 125.34375 221.023438 Z M 125.34375 221.023438 " fill-opacity="1" fill-rule="nonzero"/><path fill="#ffcaad" d="M 99.824219 289.515625 C 115.085938 282.933594 130.347656 276.351562 145.605469 269.769531 C 150.292969 267.746094 156.023438 264.210938 159.765625 267.683594 C 173.90625 280.796875 190.109375 291.683594 207.597656 299.820312 C 200.347656 294.089844 195.105469 286.792969 189.832031 279.199219 C 199.417969 288.8125 211.007812 296.417969 223.644531 301.378906 C 218.226562 294.625 212.804688 287.875 207.386719 281.121094 C 205.503906 278.777344 205.011719 276.464844 203.234375 274.046875 C 213.523438 283.171875 225.15625 290.78125 237.644531 296.546875 C 238.457031 296.921875 239.640625 297.179688 240.058594 296.390625 C 234.492188 290.652344 228.929688 284.917969 223.367188 279.179688 C 219.355469 275.046875 217.308594 270.382812 213.75 265.855469 C 220.886719 268.425781 226.855469 273.777344 234.171875 275.796875 C 238.40625 276.964844 242.871094 276.949219 247.253906 276.675781 C 233.53125 267.476562 220.675781 256.710938 209.480469 244.5625 C 215.148438 243.824219 220.898438 241.277344 225.300781 237.632812 C 203.070312 238.074219 181.003906 234.25 159.605469 228.210938 C 126.917969 238.226562 94.234375 248.242188 61.550781 258.253906 C 61.632812 265.777344 65.824219 272.957031 71.785156 277.550781 C 77.742188 282.144531 84.914062 284.828125 91.964844 287.449219 C 93.957031 288.1875 97.699219 289.480469 99.824219 289.515625 Z M 99.824219 289.515625 " fill-opacity="1" fill-rule="nonzero"/><path fill="#ffcaad" d="M 160.644531 148.210938 C 164.175781 173.058594 170.40625 197.523438 179.191406 221.03125 C 193.910156 197.109375 210.496094 173.652344 214.703125 145.886719 C 215.757812 138.9375 216.113281 131.90625 216.464844 124.890625 C 204.714844 122.0625 195.394531 118.789062 183.4375 117.019531 C 183.585938 116.710938 182.121094 117.71875 181.785156 117.796875 C 181.449219 117.875 181.226562 118.183594 181.035156 118.46875 C 173.644531 129.410156 168.035156 137.269531 160.644531 148.210938 Z M 160.644531 148.210938 " fill-opacity="1" fill-rule="nonzero"/><path fill="#1c3249" d="M 145.117188 75.644531 C 141.691406 66.464844 138.5 55.359375 144.429688 47.558594 C 146.550781 44.769531 149.617188 42.824219 152.847656 41.460938 C 159.9375 38.460938 169.390625 38.65625 173.972656 44.839844 C 176.253906 47.921875 176.894531 51.898438 178.550781 55.355469 C 181.058594 60.578125 186.039062 64.546875 191.691406 65.824219 C 197.34375 67.097656 203.542969 65.648438 208.046875 62.003906 C 208.574219 65.953125 205.460938 69.65625 201.773438 71.164062 C 198.085938 72.671875 193.957031 72.496094 189.976562 72.292969 C 197.667969 76.042969 206.785156 76.761719 214.96875 74.265625 C 215.71875 84.675781 209.792969 95.484375 200.242188 99.695312 C 190.691406 103.90625 178.1875 100.59375 172.621094 91.761719 C 171.035156 89.242188 170.011719 86.402344 168.386719 83.910156 C 162.0625 74.1875 148.90625 72.207031 137.355469 71.148438 " fill-opacity="1" fill-rule="nonzero"/><path fill="#1c3249" d="M 127.691406 177.378906 C 127.691406 177.378906 128.105469 177.105469 128.710938 176.472656 C 129.304688 175.832031 130.054688 174.792969 130.582031 173.332031 C 131.128906 171.886719 131.4375 170.042969 131.429688 167.996094 C 131.425781 165.945312 131.089844 163.695312 130.589844 161.351562 C 129.574219 156.65625 128.390625 152.441406 127.5625 149.378906 C 126.734375 146.320312 126.222656 144.417969 126.222656 144.417969 C 126.222656 144.417969 126.976562 146.234375 128.082031 149.214844 C 129.167969 152.199219 130.625 156.355469 131.65625 161.128906 C 132.164062 163.515625 132.449219 165.867188 132.347656 168.015625 C 132.253906 170.15625 131.785156 172.078125 131.085938 173.542969 C 130.398438 175.019531 129.503906 176.019531 128.828125 176.59375 C 128.484375 176.878906 128.199219 177.074219 128 177.199219 C 127.796875 177.316406 127.691406 177.378906 127.691406 177.378906 Z M 127.691406 177.378906 " fill-opacity="1" fill-rule="nonzero"/><path fill="#1c3249" d="M 98.183594 161 C 98.183594 161 98.351562 160.9375 98.632812 160.800781 C 98.914062 160.667969 99.300781 160.429688 99.699219 160.070312 C 100.507812 159.359375 101.320312 158.070312 101.683594 156.507812 C 102.046875 154.921875 102.023438 153.371094 102.015625 152.234375 C 102.011719 151.105469 102.003906 150.378906 102.003906 150.378906 C 102.003906 150.378906 102.269531 151.046875 102.558594 152.167969 C 102.832031 153.28125 103.15625 154.925781 102.746094 156.753906 C 102.320312 158.601562 101.085938 159.960938 100.015625 160.511719 C 99.480469 160.800781 99.011719 160.925781 98.683594 160.964844 C 98.359375 161.007812 98.183594 161 98.183594 161 Z M 98.183594 161 " fill-opacity="1" fill-rule="nonzero"/><path fill="#1c3249" d="M 96.773438 145.28125 C 96.773438 145.28125 96.222656 145.753906 95.390625 146.535156 C 94.554688 147.3125 93.464844 148.425781 92.351562 149.722656 C 91.238281 151.023438 90.304688 152.269531 89.660156 153.210938 C 89.015625 154.15625 88.632812 154.769531 88.632812 154.769531 C 88.632812 154.769531 88.761719 154.054688 89.179688 152.957031 C 89.59375 151.859375 90.347656 150.386719 91.523438 149.015625 C 92.703125 147.644531 94.042969 146.675781 95.0625 146.097656 C 96.085938 145.515625 96.773438 145.28125 96.773438 145.28125 Z M 96.773438 145.28125 " fill-opacity="1" fill-rule="nonzero"/><path fill="#1c3249" d="M 136.8125 115.960938 C 136.835938 115.960938 136.601562 116.003906 136.484375 115.734375 C 136.371094 115.484375 136.386719 115.117188 136.378906 114.652344 C 136.390625 113.722656 136.570312 112.328125 137.371094 110.8125 C 137.570312 110.433594 137.808594 110.050781 138.09375 109.679688 C 138.378906 109.3125 138.675781 108.921875 139.140625 108.589844 C 139.589844 108.246094 140.339844 108.097656 140.941406 108.351562 C 141.542969 108.585938 141.992188 109.019531 142.355469 109.5 C 143.046875 110.457031 143.519531 111.605469 143.710938 112.863281 C 143.808594 113.488281 143.820312 114.140625 143.757812 114.796875 C 143.746094 114.960938 143.71875 115.125 143.695312 115.289062 L 143.640625 115.574219 C 143.613281 115.726562 143.574219 115.875 143.507812 116.003906 C 143.386719 116.253906 143.152344 116.4375 142.871094 116.480469 C 142.601562 116.523438 142.316406 116.421875 142.058594 116.238281 C 141.785156 116.015625 141.511719 115.792969 141.242188 115.574219 C 141.007812 115.355469 140.773438 115.136719 140.542969 114.921875 C 140.09375 114.476562 139.675781 114.015625 139.289062 113.546875 C 138.515625 112.605469 137.859375 111.636719 137.296875 110.679688 C 136.179688 108.765625 135.386719 106.949219 134.761719 105.417969 C 134.148438 103.890625 133.636719 102.628906 133.492188 101.691406 C 133.417969 101.226562 133.410156 100.859375 133.421875 100.613281 C 133.429688 100.367188 133.453125 100.242188 133.453125 100.242188 C 133.453125 100.242188 133.449219 100.371094 133.46875 100.613281 C 133.484375 100.855469 133.535156 101.214844 133.660156 101.652344 C 133.894531 102.542969 134.519531 103.71875 135.257812 105.191406 C 136.003906 106.660156 136.910156 108.394531 138.078125 110.195312 C 138.667969 111.09375 139.328125 112.003906 140.085938 112.875 C 140.464844 113.3125 140.867188 113.738281 141.292969 114.152344 L 141.957031 114.753906 L 142.59375 115.273438 L 142.628906 115.105469 C 142.648438 114.964844 142.675781 114.824219 142.6875 114.683594 C 142.75 114.121094 142.75 113.554688 142.675781 113.007812 C 142.542969 111.914062 142.152344 110.871094 141.609375 110.035156 C 141.335938 109.632812 140.992188 109.292969 140.628906 109.128906 C 140.265625 108.964844 139.902344 109 139.550781 109.214844 C 139.199219 109.421875 138.882812 109.765625 138.59375 110.085938 C 138.308594 110.410156 138.058594 110.746094 137.84375 111.085938 C 136.976562 112.441406 136.660156 113.757812 136.546875 114.664062 C 136.503906 115.117188 136.449219 115.480469 136.527344 115.71875 C 136.605469 115.976562 136.832031 115.964844 136.8125 115.960938 Z M 136.8125 115.960938 " fill-opacity="1" fill-rule="nonzero"/><path fill="#1c3249" d="M 156.671875 164.671875 C 156.671875 164.671875 157.101562 163.261719 157.714844 160.980469 C 158.332031 158.695312 159.085938 155.527344 159.75 152 C 160.40625 148.46875 160.851562 145.242188 161.101562 142.890625 C 161.355469 140.539062 161.464844 139.070312 161.464844 139.070312 C 161.464844 139.070312 161.625 140.535156 161.644531 142.921875 C 161.664062 145.300781 161.488281 148.613281 160.820312 152.199219 C 160.144531 155.785156 159.113281 158.933594 158.230469 161.148438 C 157.351562 163.363281 156.671875 164.671875 156.671875 164.671875 Z M 156.671875 164.671875 " fill-opacity="1" fill-rule="nonzero"/><path fill="#ffffff" d="M 157.117188 75.804688 C 157.117188 75.804688 156.828125 75.808594 156.308594 75.8125 C 155.789062 75.824219 155.03125 75.765625 154.101562 75.617188 C 153.171875 75.472656 152.082031 75.175781 150.914062 74.71875 C 149.761719 74.242188 148.535156 73.589844 147.363281 72.726562 C 146.207031 71.851562 145.230469 70.863281 144.441406 69.894531 C 143.671875 68.90625 143.078125 67.945312 142.675781 67.09375 C 142.265625 66.25 141.996094 65.539062 141.855469 65.035156 C 141.714844 64.535156 141.632812 64.257812 141.632812 64.257812 C 141.632812 64.257812 141.769531 64.515625 142.015625 64.96875 C 142.246094 65.429688 142.632812 66.070312 143.144531 66.824219 C 143.652344 67.578125 144.332031 68.421875 145.140625 69.292969 C 145.964844 70.148438 146.925781 71.03125 148.015625 71.855469 C 149.117188 72.664062 150.234375 73.332031 151.292969 73.882812 C 152.359375 74.40625 153.359375 74.816406 154.230469 75.085938 C 155.09375 75.363281 155.820312 75.554688 156.328125 75.640625 C 156.835938 75.746094 157.117188 75.804688 157.117188 75.804688 Z M 157.117188 75.804688 " fill-opacity="1" fill-rule="nonzero"/><path fill="#1c3249" d="M 191.285156 72.726562 C 191.285156 72.726562 190.910156 72.710938 190.242188 72.679688 C 189.570312 72.632812 188.59375 72.5625 187.398438 72.386719 C 185.015625 72.042969 181.714844 71.3125 178.308594 69.851562 C 176.605469 69.121094 175.039062 68.328125 173.671875 67.453125 C 172.308594 66.578125 171.1875 65.59375 170.425781 64.617188 C 169.648438 63.648438 169.261719 62.699219 169.09375 62.039062 C 169.003906 61.710938 168.960938 61.449219 168.945312 61.269531 C 168.925781 61.09375 168.914062 61 168.914062 61 C 168.914062 61 168.941406 61.089844 168.992188 61.261719 C 169.035156 61.433594 169.121094 61.679688 169.253906 61.984375 C 169.515625 62.597656 170.003906 63.433594 170.835938 64.257812 C 172.457031 65.964844 175.410156 67.429688 178.734375 68.847656 C 182.054688 70.273438 185.195312 71.246094 187.503906 71.851562 C 188.660156 72.160156 189.609375 72.363281 190.261719 72.511719 C 190.917969 72.652344 191.285156 72.726562 191.285156 72.726562 Z M 191.285156 72.726562 " fill-opacity="1" fill-rule="nonzero"/><path fill="#ffffff" d="M 110.402344 78.742188 C 110.402344 78.742188 110.304688 78.792969 110.121094 78.890625 C 109.945312 79 109.691406 79.175781 109.4375 79.46875 C 108.941406 80.03125 108.425781 81.179688 108.75 82.480469 C 109.070312 83.773438 110.304688 85.050781 111.992188 85.558594 C 112.839844 85.820312 113.785156 85.910156 114.769531 85.867188 C 115.761719 85.808594 116.808594 85.703125 117.699219 85.3125 C 118.613281 84.941406 119.183594 84.230469 119.054688 83.445312 C 118.945312 82.679688 118.21875 82 117.484375 81.535156 C 115.949219 80.640625 114.265625 80.121094 112.914062 79.765625 C 111.539062 79.417969 110.386719 79.269531 109.589844 79.195312 C 108.792969 79.121094 108.347656 79.105469 108.347656 79.105469 C 108.347656 79.105469 108.789062 79.050781 109.597656 79.023438 C 110.402344 78.996094 111.582031 79.011719 113.023438 79.234375 C 114.46875 79.476562 116.152344 79.828125 117.957031 80.746094 C 118.398438 81 118.835938 81.300781 119.226562 81.703125 C 119.609375 82.105469 119.972656 82.625 120.082031 83.28125 C 120.203125 83.921875 120.039062 84.632812 119.640625 85.171875 C 119.246094 85.71875 118.691406 86.066406 118.136719 86.3125 C 117 86.796875 115.867188 86.875 114.800781 86.910156 C 113.722656 86.925781 112.65625 86.78125 111.699219 86.429688 C 109.765625 85.730469 108.445312 84.128906 108.214844 82.59375 C 107.992188 81.03125 108.722656 79.878906 109.316406 79.351562 C 109.621094 79.074219 109.90625 78.933594 110.097656 78.847656 C 110.296875 78.777344 110.402344 78.742188 110.402344 78.742188 Z M 110.402344 78.742188 " fill-opacity="1" fill-rule="nonzero"/><path fill="#ffffff" d="M 55.605469 134.296875 C 55.605469 134.296875 56.011719 134.226562 56.753906 134.148438 C 57.496094 134.074219 58.582031 134.007812 59.929688 134.074219 C 61.273438 134.136719 62.875 134.347656 64.605469 134.816406 C 65.453125 135.0625 66.398438 135.308594 67.296875 135.933594 C 68.171875 136.542969 68.949219 137.691406 68.660156 139.03125 C 68.507812 139.6875 68.066406 140.203125 67.578125 140.535156 C 67.085938 140.871094 66.507812 141.046875 65.964844 141.09375 C 64.863281 141.175781 63.914062 140.871094 63.070312 140.589844 C 61.359375 140.011719 59.933594 139.210938 58.835938 138.425781 C 57.734375 137.640625 56.945312 136.886719 56.433594 136.339844 C 55.921875 135.792969 55.667969 135.464844 55.667969 135.464844 C 55.667969 135.464844 55.972656 135.746094 56.546875 136.214844 C 57.125 136.683594 57.992188 137.320312 59.128906 137.96875 C 60.269531 138.613281 61.695312 139.257812 63.34375 139.714844 C 64.171875 139.941406 65.042969 140.152344 65.859375 140.054688 C 66.644531 139.980469 67.445312 139.464844 67.601562 138.773438 C 67.773438 138.078125 67.328125 137.242188 66.679688 136.773438 C 66.015625 136.269531 65.15625 135.980469 64.339844 135.699219 C 62.707031 135.148438 61.175781 134.8125 59.875 134.617188 C 58.574219 134.417969 57.503906 134.347656 56.761719 134.320312 C 56.015625 134.304688 55.605469 134.296875 55.605469 134.296875 Z M 55.605469 134.296875 " fill-opacity="1" fill-rule="nonzero"/><path fill="#ffffff" d="M 155.332031 86.695312 C 155.332031 86.695312 155.367188 86.804688 155.4375 87.019531 C 155.507812 87.230469 155.605469 87.546875 155.710938 87.960938 C 155.921875 88.785156 156.171875 90.003906 156.230469 91.542969 C 156.292969 93.074219 156.164062 94.929688 155.613281 96.910156 C 155.308594 97.890625 155.058594 98.921875 154.316406 99.953125 C 153.9375 100.449219 153.347656 100.910156 152.636719 101.03125 C 151.933594 101.167969 151.226562 101 150.632812 100.6875 C 150.042969 100.363281 149.542969 99.910156 149.191406 99.359375 C 148.828125 98.800781 148.648438 98.152344 148.601562 97.558594 C 148.496094 96.335938 148.832031 95.226562 149.238281 94.277344 C 150.089844 92.382812 151.15625 90.890625 152.148438 89.71875 C 153.140625 88.550781 154.070312 87.726562 154.730469 87.1875 C 155.390625 86.652344 155.78125 86.390625 155.78125 86.390625 C 155.78125 86.390625 155.433594 86.707031 154.84375 87.3125 C 154.257812 87.921875 153.441406 88.832031 152.578125 90.054688 C 151.71875 91.269531 150.789062 92.820312 150.089844 94.617188 C 149.761719 95.511719 149.523438 96.496094 149.640625 97.453125 C 149.695312 97.941406 149.832031 98.386719 150.09375 98.769531 C 150.347656 99.164062 150.726562 99.492188 151.144531 99.726562 C 152.011719 100.199219 152.9375 100.046875 153.496094 99.308594 C 154.066406 98.585938 154.414062 97.546875 154.734375 96.644531 C 155.351562 94.792969 155.613281 93.027344 155.6875 91.539062 C 155.765625 90.046875 155.652344 88.828125 155.542969 87.992188 C 155.488281 87.574219 155.433594 87.25 155.390625 87.03125 C 155.351562 86.8125 155.332031 86.695312 155.332031 86.695312 Z M 155.332031 86.695312 " fill-opacity="1" fill-rule="nonzero"/><path fill="#ffffff" d="M 101.753906 134.234375 C 101.753906 134.234375 101.691406 134.335938 101.507812 134.460938 C 101.320312 134.585938 101.003906 134.6875 100.59375 134.730469 C 99.792969 134.804688 98.613281 134.875 97.164062 134.597656 C 95.734375 134.324219 93.984375 133.625 92.636719 132.09375 C 91.273438 130.625 90.550781 128.050781 91.652344 125.808594 C 91.929688 125.265625 92.269531 124.757812 92.828125 124.359375 C 93.101562 124.167969 93.460938 124.023438 93.808594 123.996094 C 94.15625 123.964844 94.46875 124.011719 94.75 124.082031 C 95.894531 124.351562 96.800781 125.050781 97.464844 125.78125 C 98.796875 127.292969 99.472656 128.890625 100.0625 130.203125 C 100.628906 131.53125 100.972656 132.648438 101.1875 133.421875 C 101.394531 134.195312 101.484375 134.632812 101.484375 134.632812 C 101.484375 134.632812 101.320312 134.21875 101.023438 133.476562 C 100.714844 132.738281 100.25 131.683594 99.574219 130.4375 C 98.878906 129.214844 98.0625 127.6875 96.804688 126.417969 C 96.171875 125.796875 95.402344 125.277344 94.523438 125.097656 C 94.0625 125 93.746094 125.019531 93.441406 125.246094 C 93.128906 125.464844 92.835938 125.871094 92.628906 126.292969 C 92.203125 127.148438 92.09375 128.148438 92.246094 129.0625 C 92.386719 129.980469 92.800781 130.8125 93.339844 131.503906 C 94.4375 132.902344 95.964844 133.679688 97.292969 134.066406 C 98.632812 134.460938 99.792969 134.53125 100.585938 134.558594 C 100.980469 134.570312 101.292969 134.511719 101.484375 134.417969 C 101.675781 134.324219 101.753906 134.234375 101.753906 134.234375 Z M 101.753906 134.234375 " fill-opacity="1" fill-rule="nonzero"/><path fill="#1c3249" d="M 80.304688 216.941406 C 80.304688 216.941406 80.199219 216.929688 80.011719 216.867188 C 79.824219 216.804688 79.546875 216.6875 79.25 216.441406 C 78.640625 215.980469 78.007812 214.90625 78.003906 213.511719 C 78.066406 210.808594 78.910156 207.105469 81.039062 203.566406 C 83.144531 200.015625 86.046875 197.546875 88.28125 196.125 C 89.417969 195.425781 90.378906 194.945312 91.058594 194.648438 C 91.742188 194.367188 92.121094 194.214844 92.121094 194.214844 C 92.121094 194.214844 91.769531 194.421875 91.136719 194.800781 C 90.511719 195.183594 89.625 195.777344 88.59375 196.570312 C 86.558594 198.1875 83.980469 200.738281 81.972656 204.125 C 79.945312 207.484375 78.875 210.988281 78.546875 213.519531 C 78.421875 214.789062 78.855469 215.796875 79.363281 216.316406 C 79.609375 216.582031 79.855469 216.734375 80.03125 216.824219 C 80.203125 216.914062 80.304688 216.941406 80.304688 216.941406 Z M 80.304688 216.941406 " fill-opacity="1" fill-rule="nonzero"/><path fill="#1c3249" d="M 133.191406 208.09375 C 133.191406 208.09375 133.558594 207.988281 134.066406 207.761719 C 134.582031 207.539062 135.203125 207.160156 135.824219 206.671875 C 136.4375 206.183594 136.949219 205.664062 137.285156 205.214844 C 137.625 204.773438 137.808594 204.4375 137.808594 204.4375 C 137.808594 204.4375 137.820312 204.539062 137.835938 204.703125 C 137.851562 204.878906 137.839844 205.132812 137.78125 205.441406 C 137.671875 206.058594 137.277344 206.910156 136.5 207.527344 C 135.71875 208.144531 134.796875 208.332031 134.171875 208.296875 C 133.855469 208.28125 133.609375 208.234375 133.445312 208.179688 C 133.285156 208.125 133.191406 208.09375 133.191406 208.09375 Z M 133.191406 208.09375 " fill-opacity="1" fill-rule="nonzero"/><path fill="#1c3249" d="M 327.011719 282.34375 C 327.011719 282.34375 327.015625 281.605469 326.839844 280.207031 C 326.664062 278.8125 326.292969 276.769531 325.671875 274.164062 C 325.050781 271.5625 324.195312 268.402344 323.078125 264.769531 C 321.960938 261.140625 320.582031 257.027344 319.078125 252.484375 C 313.03125 234.3125 303.972656 209.417969 294.957031 181.59375 C 292.65625 174.664062 290.40625 167.894531 288.238281 161.359375 C 287.6875 159.722656 287.140625 158.101562 286.597656 156.492188 C 286.058594 154.898438 285.503906 153.339844 284.839844 151.867188 C 283.535156 148.914062 281.609375 146.402344 278.910156 144.949219 C 276.257812 143.410156 273.324219 142.503906 270.449219 141.78125 C 267.5625 141.0625 264.691406 140.519531 261.941406 139.8125 C 256.46875 138.421875 251.414062 136.941406 246.871094 135.371094 C 237.84375 132.097656 230.632812 129.285156 225.609375 127.40625 C 220.601562 125.5 217.832031 124.445312 217.832031 124.445312 C 217.832031 124.445312 229.027344 128.324219 247.132812 134.597656 C 251.679688 136.058594 256.734375 137.4375 262.207031 138.726562 C 264.929688 139.378906 267.796875 139.875 270.746094 140.5625 C 273.679688 141.257812 276.734375 142.144531 279.597656 143.753906 C 281.019531 144.527344 282.410156 145.613281 283.496094 146.921875 C 284.601562 148.222656 285.480469 149.703125 286.1875 151.25 C 286.902344 152.792969 287.484375 154.394531 288.042969 156 C 288.59375 157.59375 289.148438 159.207031 289.710938 160.832031 C 291.90625 167.371094 294.179688 174.144531 296.507812 181.082031 C 305.519531 208.898438 314.191406 233.90625 319.855469 252.230469 C 321.265625 256.8125 322.542969 260.953125 323.574219 264.625 C 324.601562 268.292969 325.371094 271.484375 325.921875 274.109375 C 326.46875 276.734375 326.777344 278.796875 326.910156 280.199219 C 327.039062 281.605469 327.011719 282.34375 327.011719 282.34375 Z M 327.011719 282.34375 " fill-opacity="1" fill-rule="nonzero"/><g clip-path="url(#46f7949c84)"><path fill="#1c3249" d="M 312.054688 323.460938 C 312.054688 323.460938 310.96875 324.292969 309.007812 325.800781 C 307.035156 327.289062 304.222656 329.519531 300.425781 331.855469 C 298.527344 333.015625 296.347656 334.164062 293.871094 335.101562 C 291.398438 336.050781 288.570312 336.636719 285.617188 336.875 C 282.660156 337.132812 279.570312 337.09375 276.40625 337.128906 C 273.226562 337.179688 269.933594 337.234375 266.5625 337.285156 C 253.0625 337.417969 240.839844 337.042969 232.003906 336.625 C 223.167969 336.203125 217.714844 335.773438 217.714844 335.773438 C 217.714844 335.773438 223.1875 335.789062 232.027344 335.808594 C 240.867188 335.820312 253.070312 335.785156 266.550781 335.652344 C 269.921875 335.621094 273.214844 335.59375 276.398438 335.5625 C 279.59375 335.578125 282.640625 335.675781 285.519531 335.5 C 288.394531 335.339844 291.078125 334.875 293.496094 334.046875 C 295.917969 333.234375 298.09375 332.203125 300.015625 331.148438 C 303.863281 329.019531 306.800781 326.957031 308.859375 325.59375 C 310.914062 324.21875 312.054688 323.460938 312.054688 323.460938 Z M 312.054688 323.460938 " fill-opacity="1" fill-rule="nonzero"/></g><path fill="#1c3249" d="M 179.191406 221.03125 C 179.191406 221.03125 179.972656 219.796875 181.382812 217.566406 C 182.789062 215.332031 184.804688 212.09375 187.210938 208.039062 C 192.023438 199.949219 198.398438 188.589844 204.597656 175.691406 C 207.6875 169.265625 209.683594 162.78125 211.183594 156.792969 C 212.667969 150.796875 213.726562 145.316406 214.679688 140.726562 C 215.640625 136.144531 216.140625 132.402344 216.167969 129.792969 C 216.199219 128.488281 216.128906 127.476562 216.082031 126.789062 C 216.015625 126.105469 215.980469 125.746094 215.980469 125.746094 C 215.980469 125.746094 216.039062 126.101562 216.15625 126.78125 C 216.246094 127.464844 216.382812 128.476562 216.429688 129.789062 C 216.5625 132.414062 216.261719 136.234375 215.5 140.867188 C 214.753906 145.496094 213.898438 151.019531 212.554688 157.101562 C 211.203125 163.164062 209.261719 169.835938 206.117188 176.367188 C 199.871094 189.371094 193.105469 200.558594 187.925781 208.460938 C 185.335938 212.417969 183.140625 215.554688 181.605469 217.703125 C 180.050781 219.84375 179.191406 221.03125 179.191406 221.03125 Z M 179.191406 221.03125 " fill-opacity="1" fill-rule="nonzero"/><g mask="url(#3a51cca4af)"><g transform="matrix(1, 0, 0, 1, 229, 171)"><g clip-path="url(#82a26a82a8)"><g clip-path="url(#7998dad78b)"><path fill="#ffcaad" d="M 1.4375 37.039062 C 2.027344 45.964844 7.226562 53.933594 13.15625 60.632812 C 19.085938 67.332031 25.9375 73.269531 30.992188 80.652344 C 34.410156 85.648438 38.007812 91.921875 44.054688 92.230469 C 46.15625 92.335938 48.238281 91.636719 50.023438 90.523438 C 54.046875 88.023438 56.550781 83.574219 57.691406 78.976562 C 58.828125 74.375 58.761719 69.574219 58.671875 64.839844 C 58.535156 57.769531 58.300781 50.457031 55.257812 44.070312 C 52.003906 37.242188 45.6875 31.820312 44.238281 24.394531 C 43.390625 20.0625 44.328125 15.472656 43.113281 11.226562 C 41.691406 6.261719 37.285156 2.386719 32.257812 1.214844 C 14.160156 -3.003906 0.429688 21.828125 1.4375 37.039062 Z M 1.4375 37.039062 " fill-opacity="1" fill-rule="nonzero"/></g></g></g></g><path fill="#1c3249" d="M 253.496094 258.34375 C 253.496094 258.34375 253.027344 257.402344 252.179688 255.703125 C 251.75 254.851562 251.242188 253.800781 250.722656 252.550781 C 250.195312 251.304688 249.546875 249.898438 248.980469 248.289062 C 248.683594 247.488281 248.371094 246.648438 248.050781 245.773438 C 247.730469 244.898438 247.464844 243.964844 247.152344 243.007812 C 246.511719 241.097656 245.996094 239.011719 245.429688 236.820312 C 244.398438 232.414062 243.542969 227.492188 243.101562 222.277344 C 242.703125 217.058594 242.761719 212.0625 243.078125 207.546875 C 243.285156 205.292969 243.464844 203.152344 243.789062 201.164062 C 243.941406 200.171875 244.058594 199.207031 244.234375 198.289062 C 244.410156 197.375 244.585938 196.496094 244.75 195.660156 C 245.050781 193.980469 245.46875 192.488281 245.789062 191.175781 C 246.101562 189.855469 246.433594 188.738281 246.722656 187.832031 C 247.289062 186.015625 247.601562 185.011719 247.601562 185.011719 C 247.601562 185.011719 247.398438 186.042969 247.03125 187.90625 C 246.835938 188.832031 246.609375 189.972656 246.417969 191.304688 C 246.210938 192.636719 245.921875 194.140625 245.746094 195.824219 C 245.644531 196.664062 245.535156 197.539062 245.421875 198.457031 C 245.3125 199.371094 245.257812 200.332031 245.164062 201.320312 C 244.957031 203.292969 244.894531 205.414062 244.78125 207.636719 C 244.660156 212.09375 244.726562 216.992188 245.117188 222.113281 C 245.550781 227.234375 246.265625 232.078125 247.097656 236.460938 C 247.566406 238.636719 247.964844 240.71875 248.484375 242.636719 C 248.734375 243.597656 248.941406 244.535156 249.195312 245.421875 C 249.453125 246.304688 249.703125 247.15625 249.9375 247.96875 C 250.378906 249.601562 250.90625 251.039062 251.320312 252.320312 C 251.726562 253.605469 252.128906 254.695312 252.472656 255.578125 C 253.132812 257.359375 253.496094 258.34375 253.496094 258.34375 Z M 253.496094 258.34375 " fill-opacity="1" fill-rule="nonzero"/><path fill="#1c3249" d="M 267.011719 273.464844 C 267.011719 273.464844 266.859375 272.714844 266.578125 271.371094 C 266.316406 270.023438 265.890625 268.078125 265.335938 265.691406 C 264.792969 263.300781 264.066406 260.480469 263.214844 257.367188 C 262.339844 254.261719 261.320312 250.867188 260.15625 247.335938 C 258.976562 243.808594 257.765625 240.480469 256.609375 237.464844 C 255.429688 234.460938 254.324219 231.765625 253.332031 229.527344 C 252.347656 227.285156 251.527344 225.46875 250.929688 224.230469 C 250.347656 222.984375 250.027344 222.292969 250.027344 222.292969 C 250.027344 222.292969 250.449219 222.929688 251.207031 224.074219 C 251.96875 225.226562 253.015625 226.925781 254.234375 229.070312 C 255.460938 231.214844 256.8125 233.828125 258.179688 236.800781 C 259.527344 239.777344 260.878906 243.117188 262.078125 246.699219 C 263.257812 250.285156 264.171875 253.769531 264.875 256.960938 C 265.550781 260.160156 266.035156 263.066406 266.332031 265.515625 C 266.640625 267.964844 266.816406 269.953125 266.890625 271.332031 C 266.96875 272.703125 267.011719 273.464844 267.011719 273.464844 Z M 267.011719 273.464844 " fill-opacity="1" fill-rule="nonzero"/></svg>